<svg width="272" height="208" viewBox="0 0 272 208" fill="none"
  xmlns="http://www.w3.org/2000/svg">
  <path d="M21.2154 31.7776C11.7155 159.278 60.7151 202.778 70.7151 176.277C80.7151 149.777 81.715 105.403 94.215 104.778C106.122 104.182 109.409 141.92 109.694 145.505C109.71 145.705 109.722 145.847 109.745 146.047C110.164 149.773 115.201 190.919 133.109 187.695C133.695 187.589 134.266 187.408 134.806 187.157C139.151 185.138 160.269 173.22 179 125.5C192.984 89.873 216 42.9996 187.5 25.9999C159 9.00013 125 31.7776 130 58.4999C135 85.2222 220.5 99.7229 251 82" stroke="#00F5D4" stroke-width="40" stroke-linecap="round" stroke-linejoin="bevel"/>
</svg>